<?xml version="1.0"?>
<!DOCTYPE score-partwise PUBLIC "-//Recordare//DTD MusicXML 1.1 Partwise//EN" "http://www.musicxml.org/dtds/partwise.dtd">
<score-partwise><identification><creator type="software">JFugue MusicXMLRenderer</creator></identification><part-list><score-part id="V0"><part-name /></score-part><score-part id="V1"><part-name /></score-part></part-list><part id="V0"><measure number="1"><attributes><divisions>4</divisions><time><beats>4</beats><beat-type>4</beat-type></time><clef><sign>G</sign><line>2</line></clef><key><fifths>0</fifths><mode>major</mode></key></attributes><direction placement="above"><direction-type><metronome><beat-unit>quarter</beat-unit><per-minute>120</per-minute></metronome></direction-type></direction><direction placement="above"><direction-type><metronome><beat-unit>quarter</beat-unit><per-minute>120</per-minute></metronome></direction-type></direction><note><pitch><step>A</step><octave>3</octave></pitch><duration>4</duration><type>quarter</type></note><note><pitch><step>A</step><octave>4</octave></pitch><duration>4</duration><type>quarter</type></note><note><pitch><step>D</step><octave>4</octave></pitch><duration>4</duration><type>quarter</type></note><note><pitch><step>A</step><octave>4</octave></pitch><duration>4</duration><type>quarter</type></note><note><pitch><step>G</step><octave>4</octave></pitch><duration>4</duration><type>quarter</type></note><note><pitch><step>D</step><octave>4</octave></pitch><duration>4</duration><type>quarter</type></note><note><pitch><step>A</step><octave>4</octave></pitch><duration>4</duration><type>quarter</type></note><note><pitch><step>E</step><octave>4</octave></pitch><duration>4</duration><type>quarter</type></note></measure><measure number="2"><note><pitch><step>A</step><octave>3</octave></pitch><duration>4</duration><type>quarter</type></note><note><pitch><step>F</step><octave>3</octave></pitch><duration>4</duration><type>quarter</type></note><note><pitch><step>D</step><octave>4</octave></pitch><duration>4</duration><type>quarter</type></note><note><pitch><step>A</step><octave>4</octave></pitch><duration>4</duration><type>quarter</type></note><note><pitch><step>G</step><octave>4</octave></pitch><duration>4</duration><type>quarter</type></note><note><pitch><step>D</step><octave>4</octave></pitch><duration>4</duration><type>quarter</type></note><note><pitch><step>A</step><octave>4</octave></pitch><duration>4</duration><type>quarter</type></note><note><pitch><step>E</step><octave>4</octave></pitch><duration>4</duration><type>quarter</type></note></measure><measure number="3"><note><pitch><step>A</step><octave>3</octave></pitch><duration>4</duration><type>quarter</type></note><note><pitch><step>A</step><octave>3</octave></pitch><duration>4</duration><type>quarter</type></note><note><pitch><step>D</step><octave>4</octave></pitch><duration>4</duration><type>quarter</type></note><note><pitch><step>A</step><octave>4</octave></pitch><duration>4</duration><type>quarter</type></note><note><pitch><step>G</step><octave>4</octave></pitch><duration>4</duration><type>quarter</type></note><note><pitch><step>D</step><octave>4</octave></pitch><duration>4</duration><type>quarter</type></note><note><pitch><step>A</step><octave>4</octave></pitch><duration>4</duration><type>quarter</type></note><note><pitch><step>E</step><octave>4</octave></pitch><duration>4</duration><type>quarter</type></note></measure><measure number="4"><note><pitch><step>A</step><octave>3</octave></pitch><duration>4</duration><type>quarter</type></note><note><pitch><step>A</step><octave>3</octave></pitch><duration>4</duration><type>quarter</type></note><note><pitch><step>D</step><octave>4</octave></pitch><duration>4</duration><type>quarter</type></note><note><pitch><step>A</step><octave>4</octave></pitch><duration>4</duration><type>quarter</type></note><note><pitch><step>G</step><octave>4</octave></pitch><duration>4</duration><type>quarter</type></note><note><pitch><step>D</step><octave>4</octave></pitch><duration>4</duration><type>quarter</type></note><note><pitch><step>A</step><octave>4</octave></pitch><duration>4</duration><type>quarter</type></note><note><pitch><step>E</step><octave>4</octave></pitch><duration>4</duration><type>quarter</type></note></measure><measure number="5"><note><pitch><step>A</step><octave>3</octave></pitch><duration>4</duration><type>quarter</type></note><note><pitch><step>F</step><octave>3</octave></pitch><duration>4</duration><type>quarter</type></note><note><pitch><step>D</step><octave>4</octave></pitch><duration>4</duration><type>quarter</type></note><note><pitch><step>A</step><octave>4</octave></pitch><duration>4</duration><type>quarter</type></note><note><pitch><step>G</step><octave>4</octave></pitch><duration>4</duration><type>quarter</type></note><note><pitch><step>D</step><octave>4</octave></pitch><duration>4</duration><type>quarter</type></note><note><pitch><step>A</step><octave>4</octave></pitch><duration>4</duration><type>quarter</type></note><note><pitch><step>E</step><octave>4</octave></pitch><duration>4</duration><type>quarter</type></note></measure><measure number="6"><note><pitch><step>A</step><octave>3</octave></pitch><duration>4</duration><type>quarter</type></note><note><pitch><step>C</step><octave>3</octave></pitch><duration>4</duration><type>quarter</type></note><note><pitch><step>D</step><octave>3</octave></pitch><duration>4</duration><type>quarter</type></note><note><pitch><step>A</step><octave>4</octave></pitch><duration>4</duration><type>quarter</type></note><note><pitch><step>G</step><octave>4</octave></pitch><duration>4</duration><type>quarter</type></note><note><pitch><step>D</step><octave>4</octave></pitch><duration>4</duration><type>quarter</type></note><note><pitch><step>A</step><octave>4</octave></pitch><duration>4</duration><type>quarter</type></note><note><pitch><step>E</step><octave>4</octave></pitch><duration>4</duration><type>quarter</type></note></measure><measure number="7"><note><pitch><step>A</step><octave>3</octave></pitch><duration>4</duration><type>quarter</type></note><note><pitch><step>D</step><octave>3</octave></pitch><duration>4</duration><type>quarter</type></note><note><pitch><step>D</step><octave>4</octave></pitch><duration>4</duration><type>quarter</type></note><note><pitch><step>A</step><octave>4</octave></pitch><duration>4</duration><type>quarter</type></note><note><pitch><step>G</step><octave>4</octave></pitch><duration>4</duration><type>quarter</type></note><note><pitch><step>D</step><octave>4</octave></pitch><duration>4</duration><type>quarter</type></note><note><pitch><step>A</step><octave>4</octave></pitch><duration>4</duration><type>quarter</type></note><note><pitch><step>E</step><octave>4</octave></pitch><duration>4</duration><type>quarter</type></note></measure><measure number="8"><note><pitch><step>A</step><octave>3</octave></pitch><duration>4</duration><type>quarter</type></note><note><pitch><step>C</step><octave>3</octave></pitch><duration>4</duration><type>quarter</type></note><note><pitch><step>D</step><octave>4</octave></pitch><duration>4</duration><type>quarter</type></note><note><pitch><step>A</step><octave>4</octave></pitch><duration>4</duration><type>quarter</type></note><note><pitch><step>G</step><octave>4</octave></pitch><duration>4</duration><type>quarter</type></note><note><pitch><step>D</step><octave>4</octave></pitch><duration>4</duration><type>quarter</type></note><note><pitch><step>A</step><octave>4</octave></pitch><duration>4</duration><type>quarter</type></note><note><pitch><step>E</step><octave>4</octave></pitch><duration>4</duration><type>quarter</type></note></measure><measure number="9"><note><pitch><step>A</step><octave>3</octave></pitch><duration>4</duration><type>quarter</type></note><note><pitch><step>F</step><octave>4</octave></pitch><duration>4</duration><type>quarter</type></note><note><pitch><step>D</step><octave>4</octave></pitch><duration>4</duration><type>quarter</type></note><note><pitch><step>A</step><octave>4</octave></pitch><duration>4</duration><type>quarter</type></note><note><pitch><step>G</step><octave>4</octave></pitch><duration>4</duration><type>quarter</type></note><note><pitch><step>D</step><octave>4</octave></pitch><duration>4</duration><type>quarter</type></note><note><pitch><step>A</step><octave>4</octave></pitch><duration>4</duration><type>quarter</type></note><note><pitch><step>E</step><octave>4</octave></pitch><duration>4</duration><type>quarter</type></note></measure><measure number="10"><note><pitch><step>G</step><octave>4</octave></pitch><duration>4</duration><type>quarter</type></note><note><pitch><step>D</step><octave>3</octave></pitch><duration>4</duration><type>quarter</type></note><note><pitch><step>G</step><octave>4</octave></pitch><duration>4</duration><type>quarter</type></note><note><pitch><step>E</step><octave>3</octave></pitch><duration>4</duration><type>quarter</type></note><note><pitch><step>A</step><octave>4</octave></pitch><duration>4</duration><type>quarter</type></note><note><pitch><step>G</step><octave>3</octave></pitch><duration>4</duration><type>quarter</type></note><note><pitch><step>D</step><octave>3</octave></pitch><duration>4</duration><type>quarter</type></note><note><pitch><step>E</step><octave>3</octave></pitch><duration>4</duration><type>quarter</type></note></measure><measure number="11"><note><pitch><step>G</step><octave>4</octave></pitch><duration>4</duration><type>quarter</type></note><note><pitch><step>C</step><octave>4</octave></pitch><duration>4</duration><type>quarter</type></note><note><pitch><step>G</step><octave>4</octave></pitch><duration>4</duration><type>quarter</type></note><note><pitch><step>E</step><octave>3</octave></pitch><duration>4</duration><type>quarter</type></note><note><pitch><step>A</step><octave>4</octave></pitch><duration>4</duration><type>quarter</type></note><note><pitch><step>G</step><octave>3</octave></pitch><duration>4</duration><type>quarter</type></note><note><pitch><step>D</step><octave>3</octave></pitch><duration>4</duration><type>quarter</type></note><note><pitch><step>E</step><octave>3</octave></pitch><duration>4</duration><type>quarter</type></note></measure><measure number="12"><note><pitch><step>A</step><octave>4</octave></pitch><duration>4</duration><type>quarter</type></note><note><pitch><step>F</step><octave>3</octave></pitch><duration>4</duration><type>quarter</type></note><note><pitch><step>C</step><octave>3</octave></pitch><duration>4</duration><type>quarter</type></note><note><rest /><duration>4</duration><type>quarter</type></note><note><pitch><step>E</step><octave>4</octave></pitch><duration>4</duration><type>quarter</type></note><note><rest /><duration>4</duration><type>quarter</type></note></measure><measure number="13"><note><pitch><step>A</step><octave>4</octave></pitch><duration>4</duration><type>quarter</type></note><note><pitch><step>C</step><octave>3</octave></pitch><duration>4</duration><type>quarter</type></note><note><pitch><step>C</step><octave>3</octave></pitch><duration>4</duration><type>quarter</type></note><note><rest /><duration>4</duration><type>quarter</type></note><note><pitch><step>E</step><octave>4</octave></pitch><duration>4</duration><type>quarter</type></note><note><rest /><duration>4</duration><type>quarter</type></note></measure><measure number="14"><note><pitch><step>A</step><octave>4</octave></pitch><duration>4</duration><type>quarter</type></note><note><pitch><step>F</step><octave>4</octave></pitch><duration>4</duration><type>quarter</type></note><note><pitch><step>C</step><octave>3</octave></pitch><duration>4</duration><type>quarter</type></note><note><rest /><duration>4</duration><type>quarter</type></note><note><pitch><step>E</step><octave>4</octave></pitch><duration>4</duration><type>quarter</type></note><note><rest /><duration>4</duration><type>quarter</type></note></measure><measure number="15"><note><pitch><step>A</step><octave>4</octave></pitch><duration>4</duration><type>quarter</type></note><note><pitch><step>B</step><octave>4</octave></pitch><duration>4</duration><type>quarter</type></note><note><pitch><step>B</step><octave>3</octave></pitch><duration>4</duration><type>quarter</type></note><note><rest /><duration>4</duration><type>quarter</type></note><note><pitch><step>E</step><octave>4</octave></pitch><duration>4</duration><type>quarter</type></note><note><rest /><duration>4</duration><type>quarter</type></note></measure><measure number="16"><note><pitch><step>A</step><octave>4</octave></pitch><duration>4</duration><type>quarter</type></note><note><pitch><step>D</step><octave>3</octave></pitch><duration>4</duration><type>quarter</type></note><note><pitch><step>E</step><octave>4</octave></pitch><duration>4</duration><type>quarter</type></note><note><rest /><duration>4</duration><type>quarter</type></note><note><pitch><step>E</step><octave>4</octave></pitch><duration>4</duration><type>quarter</type></note><note><rest /><duration>4</duration><type>quarter</type></note></measure><measure number="17"><note><pitch><step>A</step><octave>4</octave></pitch><duration>4</duration><type>quarter</type></note><note><pitch><step>D</step><octave>3</octave></pitch><duration>4</duration><type>quarter</type></note><note><pitch><step>B</step><octave>4</octave></pitch><duration>4</duration><type>quarter</type></note><note><rest /><duration>4</duration><type>quarter</type></note><note><pitch><step>E</step><octave>4</octave></pitch><duration>4</duration><type>quarter</type></note><note><rest /><duration>4</duration><type>quarter</type></note></measure><measure number="18"><note><pitch><step>A</step><octave>4</octave></pitch><duration>4</duration><type>quarter</type></note><note><pitch><step>E</step><octave>4</octave></pitch><duration>4</duration><type>quarter</type></note><note><pitch><step>E</step><octave>4</octave></pitch><duration>4</duration><type>quarter</type></note><note><rest /><duration>4</duration><type>quarter</type></note><note><pitch><step>E</step><octave>4</octave></pitch><duration>4</duration><type>quarter</type></note><note><rest /><duration>4</duration><type>quarter</type></note></measure><measure number="19"><note><pitch><step>A</step><octave>4</octave></pitch><duration>4</duration><type>quarter</type></note><note><pitch><step>C</step><octave>3</octave></pitch><duration>4</duration><type>quarter</type></note><note><pitch><step>C</step><octave>3</octave></pitch><duration>4</duration><type>quarter</type></note><note><rest /><duration>4</duration><type>quarter</type></note><note><pitch><step>E</step><octave>4</octave></pitch><duration>4</duration><type>quarter</type></note><note><rest /><duration>4</duration><type>quarter</type></note></measure><measure number="20"><note><pitch><step>A</step><octave>4</octave></pitch><duration>4</duration><type>quarter</type></note><note><pitch><step>C</step><octave>3</octave></pitch><duration>4</duration><type>quarter</type></note><note><pitch><step>F</step><octave>4</octave></pitch><duration>4</duration><type>quarter</type></note><note><rest /><duration>4</duration><type>quarter</type></note><note><pitch><step>E</step><octave>4</octave></pitch><duration>4</duration><type>quarter</type></note><note><rest /><duration>4</duration><type>quarter</type></note></measure><measure number="21"><note><pitch><step>A</step><octave>3</octave></pitch><duration>4</duration><type>quarter</type></note><note><pitch><step>D</step><octave>3</octave></pitch><duration>4</duration><type>quarter</type></note><note><pitch><step>D</step><octave>4</octave></pitch><duration>4</duration><type>quarter</type></note><note><pitch><step>A</step><octave>4</octave></pitch><duration>4</duration><type>quarter</type></note><note><pitch><step>G</step><octave>4</octave></pitch><duration>4</duration><type>quarter</type></note><note><pitch><step>D</step><octave>4</octave></pitch><duration>4</duration><type>quarter</type></note><note><pitch><step>A</step><octave>4</octave></pitch><duration>4</duration><type>quarter</type></note><note><pitch><step>E</step><octave>4</octave></pitch><duration>4</duration><type>quarter</type></note></measure><measure number="22"><note><pitch><step>A</step><octave>4</octave></pitch><duration>4</duration><type>quarter</type></note><note><pitch><step>G</step><octave>3</octave></pitch><duration>4</duration><type>quarter</type></note><note><pitch><step>B</step><octave>3</octave></pitch><duration>4</duration><type>quarter</type></note><note><rest /><duration>4</duration><type>quarter</type></note><note><pitch><step>E</step><octave>4</octave></pitch><duration>4</duration><type>quarter</type></note><note><rest /><duration>4</duration><type>quarter</type></note></measure><measure number="23"><note><pitch><step>G</step><octave>4</octave></pitch><duration>4</duration><type>quarter</type></note><note><pitch><step>E</step><octave>4</octave></pitch><duration>4</duration><type>quarter</type></note><note><pitch><step>G</step><octave>4</octave></pitch><duration>4</duration><type>quarter</type></note><note><pitch><step>E</step><octave>3</octave></pitch><duration>4</duration><type>quarter</type></note><note><pitch><step>A</step><octave>4</octave></pitch><duration>4</duration><type>quarter</type></note><note><pitch><step>G</step><octave>3</octave></pitch><duration>4</duration><type>quarter</type></note><note><pitch><step>D</step><octave>3</octave></pitch><duration>4</duration><type>quarter</type></note><note><pitch><step>E</step><octave>3</octave></pitch><duration>4</duration><type>quarter</type></note></measure><measure number="24"><note><pitch><step>A</step><octave>3</octave></pitch><duration>4</duration><type>quarter</type></note><note><pitch><step>B</step><octave>3</octave></pitch><duration>4</duration><type>quarter</type></note><note><pitch><step>D</step><octave>4</octave></pitch><duration>4</duration><type>quarter</type></note><note><pitch><step>A</step><octave>4</octave></pitch><duration>4</duration><type>quarter</type></note><note><pitch><step>G</step><octave>4</octave></pitch><duration>4</duration><type>quarter</type></note><note><pitch><step>D</step><octave>4</octave></pitch><duration>4</duration><type>quarter</type></note><note><pitch><step>A</step><octave>4</octave></pitch><duration>4</duration><type>quarter</type></note><note><pitch><step>E</step><octave>4</octave></pitch><duration>4</duration><type>quarter</type></note></measure><measure number="25"><note><pitch><step>A</step><octave>4</octave></pitch><duration>4</duration><type>quarter</type></note><note><rest /><duration>4</duration><type>quarter</type></note><note><pitch><step>E</step><octave>3</octave></pitch><duration>4</duration><type>quarter</type></note><note><rest /><duration>4</duration><type>quarter</type></note><note><pitch><step>E</step><octave>4</octave></pitch><duration>4</duration><type>quarter</type></note><note><rest /><duration>4</duration><type>quarter</type></note></measure><measure number="26"><note><pitch><step>A</step><octave>4</octave></pitch><duration>4</duration><type>quarter</type></note><note><pitch><step>E</step><octave>3</octave></pitch><duration>4</duration><type>quarter</type></note><note><pitch><step>G</step><octave>3</octave></pitch><duration>4</duration><type>quarter</type></note><note><rest /><duration>4</duration><type>quarter</type></note><note><pitch><step>E</step><octave>4</octave></pitch><duration>4</duration><type>quarter</type></note><note><rest /><duration>4</duration><type>quarter</type></note></measure></part><part id="V1"><measure number="1"><attributes><divisions>4</divisions><time><beats>4</beats><beat-type>4</beat-type></time><clef><sign>G</sign><line>2</line></clef><key><fifths>0</fifths><mode>major</mode></key></attributes><direction placement="above"><direction-type><metronome><beat-unit>quarter</beat-unit><per-minute>120</per-minute></metronome></direction-type></direction><note><pitch><step>A</step><octave>3</octave></pitch><duration>4</duration><type>quarter</type></note><note><pitch><step>A</step><octave>4</octave></pitch><duration>4</duration><type>quarter</type></note><note><pitch><step>F</step><octave>3</octave></pitch><duration>4</duration><type>quarter</type></note><note><rest /><duration>4</duration><type>quarter</type></note><note><pitch><step>E</step><octave>3</octave></pitch><duration>4</duration><type>quarter</type></note><note><rest /><duration>4</duration><type>quarter</type></note><note><rest /><duration>4</duration><type>quarter</type></note><note><pitch><step>A</step><octave>3</octave></pitch><duration>4</duration><type>quarter</type></note></measure><measure number="2"><note><pitch><step>A</step><octave>3</octave></pitch><duration>4</duration><type>quarter</type></note><note><pitch><step>G</step><octave>3</octave></pitch><duration>4</duration><type>quarter</type></note><note><pitch><step>F</step><octave>3</octave></pitch><duration>4</duration><type>quarter</type></note><note><rest /><duration>4</duration><type>quarter</type></note><note><pitch><step>A</step><octave>4</octave></pitch><duration>4</duration><type>quarter</type></note><note><rest /><duration>4</duration><type>quarter</type></note><note><rest /><duration>4</duration><type>quarter</type></note><note><pitch><step>A</step><octave>3</octave></pitch><duration>4</duration><type>quarter</type></note></measure><measure number="3"><note><pitch><step>A</step><octave>3</octave></pitch><duration>4</duration><type>quarter</type></note><note><pitch><step>F</step><octave>3</octave></pitch><duration>4</duration><type>quarter</type></note><note><pitch><step>F</step><octave>3</octave></pitch><duration>4</duration><type>quarter</type></note><note><rest /><duration>4</duration><type>quarter</type></note><note><pitch><step>E</step><octave>3</octave></pitch><duration>4</duration><type>quarter</type></note><note><rest /><duration>4</duration><type>quarter</type></note><note><rest /><duration>4</duration><type>quarter</type></note><note><pitch><step>A</step><octave>3</octave></pitch><duration>4</duration><type>quarter</type></note></measure><measure number="4"><note><pitch><step>A</step><octave>3</octave></pitch><duration>4</duration><type>quarter</type></note><note><pitch><step>E</step><octave>4</octave></pitch><duration>4</duration><type>quarter</type></note><note><pitch><step>G</step><octave>4</octave></pitch><duration>4</duration><type>quarter</type></note><note><rest /><duration>4</duration><type>quarter</type></note><note><pitch><step>A</step><octave>4</octave></pitch><duration>4</duration><type>quarter</type></note><note><rest /><duration>4</duration><type>quarter</type></note><note><rest /><duration>4</duration><type>quarter</type></note><note><pitch><step>A</step><octave>3</octave></pitch><duration>4</duration><type>quarter</type></note></measure><measure number="5"><note><pitch><step>A</step><octave>3</octave></pitch><duration>4</duration><type>quarter</type></note><note><pitch><step>F</step><octave>3</octave></pitch><duration>4</duration><type>quarter</type></note><note><pitch><step>F</step><octave>3</octave></pitch><duration>4</duration><type>quarter</type></note><note><rest /><duration>4</duration><type>quarter</type></note><note><pitch><step>E</step><octave>3</octave></pitch><duration>4</duration><type>quarter</type></note><note><rest /><duration>4</duration><type>quarter</type></note><note><rest /><duration>4</duration><type>quarter</type></note><note><pitch><step>A</step><octave>3</octave></pitch><duration>4</duration><type>quarter</type></note></measure><measure number="6"><note><pitch><step>A</step><octave>3</octave></pitch><duration>4</duration><type>quarter</type></note><note><pitch><step>C</step><octave>4</octave></pitch><duration>4</duration><type>quarter</type></note><note><pitch><step>F</step><octave>3</octave></pitch><duration>4</duration><type>quarter</type></note><note><rest /><duration>4</duration><type>quarter</type></note><note><pitch><step>A</step><octave>4</octave></pitch><duration>4</duration><type>quarter</type></note><note><rest /><duration>4</duration><type>quarter</type></note><note><rest /><duration>4</duration><type>quarter</type></note><note><pitch><step>A</step><octave>3</octave></pitch><duration>4</duration><type>quarter</type></note></measure><measure number="7"><note><pitch><step>A</step><octave>3</octave></pitch><duration>4</duration><type>quarter</type></note><note><pitch><step>C</step><octave>3</octave></pitch><duration>4</duration><type>quarter</type></note><note><pitch><step>F</step><octave>3</octave></pitch><duration>4</duration><type>quarter</type></note><note><rest /><duration>4</duration><type>quarter</type></note><note><pitch><step>A</step><octave>4</octave></pitch><duration>4</duration><type>quarter</type></note><note><rest /><duration>4</duration><type>quarter</type></note><note><rest /><duration>4</duration><type>quarter</type></note><note><pitch><step>A</step><octave>3</octave></pitch><duration>4</duration><type>quarter</type></note></measure><measure number="8"><note><pitch><step>A</step><octave>3</octave></pitch><duration>4</duration><type>quarter</type></note><note><pitch><step>F</step><octave>3</octave></pitch><duration>4</duration><type>quarter</type></note><note><pitch><step>F</step><octave>3</octave></pitch><duration>4</duration><type>quarter</type></note><note><rest /><duration>4</duration><type>quarter</type></note><note><pitch><step>E</step><octave>3</octave></pitch><duration>4</duration><type>quarter</type></note><note><rest /><duration>4</duration><type>quarter</type></note><note><rest /><duration>4</duration><type>quarter</type></note><note><pitch><step>A</step><octave>3</octave></pitch><duration>4</duration><type>quarter</type></note></measure><measure number="9"><note><pitch><step>A</step><octave>3</octave></pitch><duration>4</duration><type>quarter</type></note><note><pitch><step>C</step><octave>4</octave></pitch><duration>4</duration><type>quarter</type></note><note><pitch><step>F</step><octave>3</octave></pitch><duration>4</duration><type>quarter</type></note><note><rest /><duration>4</duration><type>quarter</type></note><note><pitch><step>A</step><octave>4</octave></pitch><duration>4</duration><type>quarter</type></note><note><rest /><duration>4</duration><type>quarter</type></note><note><rest /><duration>4</duration><type>quarter</type></note><note><pitch><step>A</step><octave>3</octave></pitch><duration>4</duration><type>quarter</type></note></measure><measure number="10"><note><rest /><duration>4</duration><type>quarter</type></note><note><pitch><step>F</step><octave>3</octave></pitch><duration>4</duration><type>quarter</type></note><note><rest /><duration>4</duration><type>quarter</type></note><note><rest /><duration>4</duration><type>quarter</type></note><note><rest /><duration>4</duration><type>quarter</type></note><note><rest /><duration>4</duration><type>quarter</type></note><note><pitch><step>D</step><octave>4</octave></pitch><duration>4</duration><type>quarter</type></note><note><pitch><step>E</step><octave>4</octave></pitch><duration>4</duration><type>quarter</type></note></measure><measure number="11"><note><rest /><duration>4</duration><type>quarter</type></note><note><pitch><step>F</step><octave>4</octave></pitch><duration>4</duration><type>quarter</type></note><note><pitch><step>D</step><octave>3</octave></pitch><duration>4</duration><type>quarter</type></note><note><rest /><duration>4</duration><type>quarter</type></note><note><rest /><duration>4</duration><type>quarter</type></note><note><rest /><duration>4</duration><type>quarter</type></note><note><pitch><step>D</step><octave>4</octave></pitch><duration>4</duration><type>quarter</type></note><note><pitch><step>E</step><octave>4</octave></pitch><duration>4</duration><type>quarter</type></note></measure><measure number="12"><note><rest /><duration>4</duration><type>quarter</type></note><note><pitch><step>A</step><octave>3</octave></pitch><duration>4</duration><type>quarter</type></note><note><rest /><duration>4</duration><type>quarter</type></note><note><pitch><step>B</step><octave>3</octave></pitch><duration>4</duration><type>quarter</type></note><note><pitch><step>A</step><octave>3</octave></pitch><duration>4</duration><type>quarter</type></note><note><pitch><step>C</step><octave>3</octave></pitch><duration>4</duration><type>quarter</type></note></measure><measure number="13"><note><rest /><duration>4</duration><type>quarter</type></note><note><pitch><step>B</step><octave>3</octave></pitch><duration>4</duration><type>quarter</type></note><note><rest /><duration>4</duration><type>quarter</type></note><note><pitch><step>B</step><octave>3</octave></pitch><duration>4</duration><type>quarter</type></note><note><pitch><step>A</step><octave>3</octave></pitch><duration>4</duration><type>quarter</type></note><note><pitch><step>C</step><octave>3</octave></pitch><duration>4</duration><type>quarter</type></note></measure><measure number="14"><note><rest /><duration>4</duration><type>quarter</type></note><note><pitch><step>E</step><octave>3</octave></pitch><duration>4</duration><type>quarter</type></note><note><rest /><duration>4</duration><type>quarter</type></note><note><pitch><step>B</step><octave>3</octave></pitch><duration>4</duration><type>quarter</type></note><note><pitch><step>A</step><octave>3</octave></pitch><duration>4</duration><type>quarter</type></note><note><pitch><step>C</step><octave>3</octave></pitch><duration>4</duration><type>quarter</type></note></measure><measure number="15"><note><rest /><duration>4</duration><type>quarter</type></note><note><rest /><duration>4</duration><type>quarter</type></note><note><rest /><duration>4</duration><type>quarter</type></note><note><pitch><step>B</step><octave>3</octave></pitch><duration>4</duration><type>quarter</type></note><note><pitch><step>A</step><octave>3</octave></pitch><duration>4</duration><type>quarter</type></note><note><pitch><step>C</step><octave>3</octave></pitch><duration>4</duration><type>quarter</type></note></measure><measure number="16"><note><rest /><duration>4</duration><type>quarter</type></note><note><pitch><step>B</step><octave>4</octave></pitch><duration>4</duration><type>quarter</type></note><note><rest /><duration>4</duration><type>quarter</type></note><note><pitch><step>B</step><octave>3</octave></pitch><duration>4</duration><type>quarter</type></note><note><pitch><step>A</step><octave>3</octave></pitch><duration>4</duration><type>quarter</type></note><note><pitch><step>C</step><octave>3</octave></pitch><duration>4</duration><type>quarter</type></note></measure><measure number="17"><note><rest /><duration>4</duration><type>quarter</type></note><note><pitch><step>D</step><octave>3</octave></pitch><duration>4</duration><type>quarter</type></note><note><rest /><duration>4</duration><type>quarter</type></note><note><pitch><step>B</step><octave>3</octave></pitch><duration>4</duration><type>quarter</type></note><note><pitch><step>A</step><octave>3</octave></pitch><duration>4</duration><type>quarter</type></note><note><pitch><step>C</step><octave>3</octave></pitch><duration>4</duration><type>quarter</type></note></measure><measure number="18"><note><rest /><duration>4</duration><type>quarter</type></note><note><pitch><step>C</step><octave>4</octave></pitch><duration>4</duration><type>quarter</type></note><note><pitch><step>C</step><octave>4</octave></pitch><duration>4</duration><type>quarter</type></note><note><pitch><step>B</step><octave>3</octave></pitch><duration>4</duration><type>quarter</type></note><note><pitch><step>A</step><octave>3</octave></pitch><duration>4</duration><type>quarter</type></note><note><pitch><step>C</step><octave>3</octave></pitch><duration>4</duration><type>quarter</type></note></measure><measure number="19"><note><rest /><duration>4</duration><type>quarter</type></note><note><pitch><step>D</step><octave>3</octave></pitch><duration>4</duration><type>quarter</type></note><note><rest /><duration>4</duration><type>quarter</type></note><note><pitch><step>B</step><octave>3</octave></pitch><duration>4</duration><type>quarter</type></note><note><pitch><step>A</step><octave>3</octave></pitch><duration>4</duration><type>quarter</type></note><note><pitch><step>C</step><octave>3</octave></pitch><duration>4</duration><type>quarter</type></note></measure><measure number="20"><note><rest /><duration>4</duration><type>quarter</type></note><note><rest /><duration>4</duration><type>quarter</type></note><note><rest /><duration>4</duration><type>quarter</type></note><note><pitch><step>B</step><octave>3</octave></pitch><duration>4</duration><type>quarter</type></note><note><pitch><step>A</step><octave>3</octave></pitch><duration>4</duration><type>quarter</type></note><note><pitch><step>C</step><octave>3</octave></pitch><duration>4</duration><type>quarter</type></note></measure><measure number="21"><note><pitch><step>A</step><octave>3</octave></pitch><duration>4</duration><type>quarter</type></note><note><pitch><step>E</step><octave>3</octave></pitch><duration>4</duration><type>quarter</type></note><note><pitch><step>B</step><octave>3</octave></pitch><duration>4</duration><type>quarter</type></note><note><rest /><duration>4</duration><type>quarter</type></note><note><pitch><step>E</step><octave>3</octave></pitch><duration>4</duration><type>quarter</type></note><note><rest /><duration>4</duration><type>quarter</type></note><note><rest /><duration>4</duration><type>quarter</type></note><note><pitch><step>A</step><octave>3</octave></pitch><duration>4</duration><type>quarter</type></note></measure><measure number="22"><note><rest /><duration>4</duration><type>quarter</type></note><note><pitch><step>G</step><octave>3</octave></pitch><duration>4</duration><type>quarter</type></note><note><rest /><duration>4</duration><type>quarter</type></note><note><pitch><step>B</step><octave>3</octave></pitch><duration>4</duration><type>quarter</type></note><note><pitch><step>A</step><octave>3</octave></pitch><duration>4</duration><type>quarter</type></note><note><pitch><step>C</step><octave>3</octave></pitch><duration>4</duration><type>quarter</type></note></measure><measure number="23"><note><rest /><duration>4</duration><type>quarter</type></note><note><pitch><step>A</step><octave>4</octave></pitch><duration>4</duration><type>quarter</type></note><note><rest /><duration>4</duration><type>quarter</type></note><note><rest /><duration>4</duration><type>quarter</type></note><note><rest /><duration>4</duration><type>quarter</type></note><note><rest /><duration>4</duration><type>quarter</type></note><note><pitch><step>D</step><octave>4</octave></pitch><duration>4</duration><type>quarter</type></note><note><pitch><step>E</step><octave>4</octave></pitch><duration>4</duration><type>quarter</type></note></measure><measure number="24"><note><pitch><step>A</step><octave>3</octave></pitch><duration>4</duration><type>quarter</type></note><note><pitch><step>E</step><octave>3</octave></pitch><duration>4</duration><type>quarter</type></note><note><pitch><step>A</step><octave>4</octave></pitch><duration>4</duration><type>quarter</type></note><note><rest /><duration>4</duration><type>quarter</type></note><note><pitch><step>A</step><octave>4</octave></pitch><duration>4</duration><type>quarter</type></note><note><rest /><duration>4</duration><type>quarter</type></note><note><rest /><duration>4</duration><type>quarter</type></note><note><pitch><step>A</step><octave>3</octave></pitch><duration>4</duration><type>quarter</type></note></measure><measure number="25"><note><rest /><duration>4</duration><type>quarter</type></note><note><pitch><step>D</step><octave>3</octave></pitch><duration>4</duration><type>quarter</type></note><note><rest /><duration>4</duration><type>quarter</type></note><note><pitch><step>B</step><octave>3</octave></pitch><duration>4</duration><type>quarter</type></note><note><pitch><step>A</step><octave>3</octave></pitch><duration>4</duration><type>quarter</type></note><note><pitch><step>C</step><octave>3</octave></pitch><duration>4</duration><type>quarter</type></note></measure><measure number="26"><note><rest /><duration>4</duration><type>quarter</type></note><note><pitch><step>B</step><octave>4</octave></pitch><duration>4</duration><type>quarter</type></note><note><pitch><step>D</step><octave>4</octave></pitch><duration>4</duration><type>quarter</type></note><note><pitch><step>B</step><octave>3</octave></pitch><duration>4</duration><type>quarter</type></note><note><pitch><step>A</step><octave>3</octave></pitch><duration>4</duration><type>quarter</type></note><note><pitch><step>C</step><octave>3</octave></pitch><duration>4</duration><type>quarter</type></note></measure></part></score-partwise>

